<svg id="Layer_1" data-name="Layer 1" xmlns="http://www.w3.org/2000/svg" viewBox="0 0 66 66.2"><defs><style>.cls-1{fill:#fdc300;}.cls-2{fill:#fff;}.cls-3{fill:#3a1e1a;}</style></defs><title>sunshine</title><path class="cls-1" d="M60.9,40.81A19.35,19.35,0,1,1,41.55,21.46,19.35,19.35,0,0,1,60.9,40.81Z" transform="translate(-8.57 -7.78)"/><path class="cls-2" d="M41.55,57.79a17,17,0,1,1,17-17A17,17,0,0,1,41.55,57.79Zm0-33.35A16.37,16.37,0,1,0,57.93,40.81,16.39,16.39,0,0,0,41.55,24.44Z" transform="translate(-8.57 -7.78)"/><path class="cls-1" d="M41.67,7.78h-.23a2.53,2.53,0,0,0-2.33,1.54A2.49,2.49,0,0,0,39,10.75c.28,1.49,1.27,6.25,2.45,6.25h.23c1.18,0,2.17-4.76,2.45-6.25A2.49,2.49,0,0,0,44,9.32,2.53,2.53,0,0,0,41.67,7.78Z" transform="translate(-8.57 -7.78)"/><path class="cls-1" d="M41.67,7.78h-.23a2.53,2.53,0,0,0-2.33,1.54A2.49,2.49,0,0,0,39,10.75c.28,1.49,1.27,6.25,2.45,6.25h.23c1.18,0,2.17-4.76,2.45-6.25A2.49,2.49,0,0,0,44,9.32,2.53,2.53,0,0,0,41.67,7.78Z" transform="translate(-8.57 -7.78)"/><path class="cls-1" d="M29,10.34l-.22.09a2.52,2.52,0,0,0-1.59,2.29,2.57,2.57,0,0,0,.42,1.37c.82,1.28,3.51,5.33,4.6,4.89l.22-.09c1.09-.44.24-5.22-.06-6.71a2.4,2.4,0,0,0-.64-1.28A2.51,2.51,0,0,0,29,10.34Z" transform="translate(-8.57 -7.78)"/><path class="cls-1" d="M18.31,17.4l-.16.17a2.45,2.45,0,0,0,.36,3.83c1.25.85,5.32,3.52,6.15,2.69l.17-.17c.83-.83-1.83-4.89-2.69-6.15a2.44,2.44,0,0,0-1.09-.92A2.53,2.53,0,0,0,18.31,17.4Z" transform="translate(-8.57 -7.78)"/><path class="cls-1" d="M11.1,28l-.1.21A2.53,2.53,0,0,0,11.44,31a2.48,2.48,0,0,0,1.24.7c1.48.36,6.22,1.44,6.71.37l.09-.22c.49-1.07-3.43-3.94-4.67-4.82a2.4,2.4,0,0,0-1.34-.48A2.52,2.52,0,0,0,11.1,28Z" transform="translate(-8.57 -7.78)"/><path class="cls-1" d="M54.1,10.25l.22.09a2.52,2.52,0,0,1,1.58,2.29A2.48,2.48,0,0,1,55.48,14c-.81,1.28-3.5,5.33-4.59,4.89l-.22-.09c-1.1-.43-.24-5.22,0-6.71a2.45,2.45,0,0,1,.64-1.27A2.53,2.53,0,0,1,54.1,10.25Z" transform="translate(-8.57 -7.78)"/><path class="cls-1" d="M64.78,17.31l.17.17a2.55,2.55,0,0,1,.56,2.74,2.58,2.58,0,0,1-.93,1.09c-1.25.86-5.31,3.52-6.14,2.69l-.17-.16c-.83-.84,1.83-4.9,2.68-6.15A2.45,2.45,0,0,1,62,16.76,2.55,2.55,0,0,1,64.78,17.31Z" transform="translate(-8.57 -7.78)"/><path class="cls-1" d="M72,28l.09.21a2.44,2.44,0,0,1-1.68,3.46c-1.47.36-6.21,1.44-6.7.37l-.1-.21c-.49-1.07,3.43-4,4.67-4.82A2.44,2.44,0,0,1,72,28Z" transform="translate(-8.57 -7.78)"/><path class="cls-1" d="M41.68,74h-.24a2.54,2.54,0,0,1-2.33-1.54A2.49,2.49,0,0,1,39,71c.29-1.49,1.27-6.25,2.45-6.25h.24c1.17,0,2.16,4.76,2.44,6.25a2.43,2.43,0,0,1-2.44,3Z" transform="translate(-8.57 -7.78)"/><path class="cls-1" d="M29,71.42l-.22-.09A2.53,2.53,0,0,1,27.2,69a2.48,2.48,0,0,1,.42-1.36c.82-1.28,3.5-5.33,4.6-4.89l.22.09c1.09.43.23,5.22-.06,6.71a2.45,2.45,0,0,1-.64,1.27A2.52,2.52,0,0,1,29,71.42Z" transform="translate(-8.57 -7.78)"/><path class="cls-1" d="M18.32,64.36l-.17-.17a2.53,2.53,0,0,1-.55-2.74,2.49,2.49,0,0,1,.92-1.09c1.25-.85,5.31-3.52,6.14-2.69l.17.16c.83.84-1.83,4.9-2.68,6.15a2.45,2.45,0,0,1-1.09.93A2.53,2.53,0,0,1,18.32,64.36Z" transform="translate(-8.57 -7.78)"/><path class="cls-1" d="M11.11,53.72l-.1-.21a2.44,2.44,0,0,1,1.68-3.46c1.47-.36,6.21-1.44,6.7-.37l.1.21c.49,1.07-3.43,4-4.67,4.83a2.45,2.45,0,0,1-1.34.48A2.52,2.52,0,0,1,11.11,53.72Z" transform="translate(-8.57 -7.78)"/><path class="cls-1" d="M54.1,71.51l.22-.09a2.53,2.53,0,0,0,1.59-2.3,2.48,2.48,0,0,0-.42-1.36c-.82-1.28-3.51-5.33-4.6-4.89l-.22.08c-1.09.44-.24,5.23.06,6.71a2.37,2.37,0,0,0,.64,1.28A2.52,2.52,0,0,0,54.1,71.51Z" transform="translate(-8.57 -7.78)"/><path class="cls-1" d="M64.79,64.44l.17-.16a2.55,2.55,0,0,0,.55-2.74,2.44,2.44,0,0,0-.92-1.09c-1.25-.86-5.31-3.53-6.15-2.7l-.16.17c-.84.83,1.83,4.9,2.68,6.15a2.44,2.44,0,0,0,3.83.37Z" transform="translate(-8.57 -7.78)"/><path class="cls-1" d="M72,53.81l.1-.22a2.51,2.51,0,0,0-.44-2.75,2.37,2.37,0,0,0-1.24-.7c-1.48-.37-6.22-1.44-6.7-.37l-.1.21c-.49,1.07,3.43,4,4.67,4.82a2.52,2.52,0,0,0,1.34.49A2.54,2.54,0,0,0,72,53.81Z" transform="translate(-8.57 -7.78)"/><path class="cls-1" d="M74.57,40.93v-.24A2.53,2.53,0,0,0,73,38.37a2.49,2.49,0,0,0-1.43-.12c-1.49.28-6.25,1.27-6.25,2.44v.24c0,1.18,4.76,2.16,6.25,2.44A2.49,2.49,0,0,0,73,43.26,2.54,2.54,0,0,0,74.57,40.93Z" transform="translate(-8.57 -7.78)"/><path class="cls-1" d="M8.57,40.93v-.24a2.53,2.53,0,0,1,1.54-2.32,2.49,2.49,0,0,1,1.43-.12c1.49.28,6.25,1.27,6.25,2.44v.24c0,1.18-4.76,2.16-6.25,2.45a2.58,2.58,0,0,1-1.43-.12A2.54,2.54,0,0,1,8.57,40.93Z" transform="translate(-8.57 -7.78)"/><path class="cls-3" d="M33.55,44.88a.59.59,0,0,1-.22-.05.53.53,0,0,1-.25-.69,2.79,2.79,0,0,1,2.7-1.56,3,3,0,0,1,2.67,1.5.53.53,0,0,1-.16.72.51.51,0,0,1-.71-.17,2,2,0,0,0-1.8-1,1.77,1.77,0,0,0-1.76,1A.52.52,0,0,1,33.55,44.88Z" transform="translate(-8.57 -7.78)"/><path class="cls-3" d="M45.13,44.88a.64.64,0,0,1-.23-.05.53.53,0,0,1-.24-.69,2.77,2.77,0,0,1,2.7-1.56A3,3,0,0,1,50,44.08a.52.52,0,0,1-.17.72.51.51,0,0,1-.71-.17,1.94,1.94,0,0,0-1.79-1,1.78,1.78,0,0,0-1.77,1A.51.51,0,0,1,45.13,44.88Z" transform="translate(-8.57 -7.78)"/><path class="cls-3" d="M43,51.56a1.7,1.7,0,0,1-.54-.09,2.64,2.64,0,0,1-1.14-.89,2.7,2.7,0,0,1-1.14.89,1.64,1.64,0,0,1-1.3-.1,2.7,2.7,0,0,1-1.46-1.75,2.41,2.41,0,0,1,.36-2,.52.52,0,0,1,.85.6,1.36,1.36,0,0,0-.21,1.13,1.71,1.71,0,0,0,.92,1.08.63.63,0,0,0,.5,0,2.36,2.36,0,0,0,1-1.09.52.52,0,0,1,.47-.3h0a.53.53,0,0,1,.47.3,2.23,2.23,0,0,0,1,1.09.6.6,0,0,0,.49,0,1.68,1.68,0,0,0,.92-1.08,1.35,1.35,0,0,0-.2-1.13.51.51,0,0,1,.12-.72.5.5,0,0,1,.72.12,2.38,2.38,0,0,1,.37,2,2.7,2.7,0,0,1-1.46,1.75A1.64,1.64,0,0,1,43,51.56Z" transform="translate(-8.57 -7.78)"/><path class="cls-2" d="M34.72,31.55c2.7.45,3.39-3.75.68-4.2s-3.39,3.76-.68,4.2Z" transform="translate(-8.57 -7.78)"/><path class="cls-2" d="M30,34.53a1.42,1.42,0,0,0,.45-2.8,1.42,1.42,0,0,0-.45,2.8Z" transform="translate(-8.57 -7.78)"/></svg>